<svg width="24" height="24" viewBox="0 0 24 24" fill="none" xmlns="http://www.w3.org/2000/svg">
<mask id="mask0_115_5810" style="mask-type:alpha" maskUnits="userSpaceOnUse" x="0" y="0" width="24" height="24">
<rect width="24" height="24" fill="#D9D9D9"/>
</mask>
<g mask="url(#mask0_115_5810)">
<path d="M17.7547 19.9582L17.7539 19.9577L13.2618 17.3858C12.8749 17.1602 12.4167 17.0718 12.0035 17.0718C11.5882 17.0718 11.1294 17.1611 10.7406 17.3844C10.7404 17.3846 10.7402 17.3847 10.74 17.3848L6.24868 19.9563C6.24829 19.9565 6.24791 19.9567 6.24752 19.9569C5.67657 20.2807 5.34023 20.207 5.19126 20.1166C5.03415 20.0212 4.8 19.7353 4.8 19.047V5.66582C4.8 4.06972 6.05956 2.8 7.55556 2.8H16.4352C17.9301 2.8 19.1918 4.06894 19.2 5.66771V19.047C19.2 19.7422 18.9645 20.0291 18.8087 20.1237C18.6622 20.2127 18.3273 20.287 17.7547 19.9582Z" stroke="#6B7684" stroke-width="1.6"/>
</g>
</svg>
